<svg xmlns="http://www.w3.org/2000/svg" xmlns:xlink="http://www.w3.org/1999/xlink">
	<svg y="15">
			<path d="M15,15                  A1,1 0 0,1 35,10                  A1,1 0 0,1 55,15                  A1,1 0 0,1 55,35                  A1,1 0 0,1 35,40                  A1,1 0 0,1 15,35                  A1,1 0 0,1 15,15                  " style="stroke:#000000; stroke-width: 2; fill:#ffffcc;"/>
			<a xlink:href="/svg/path-element.html" target="_top">
					<text x="20" y="90" style="stroke: #333333">Arcs</text>
			</a>
			<path d="M100,15                  q25,50   75,20                  " style="stroke:#000000; stroke-width: 2; fill:#ffffcc;"/>
			<a xlink:href="/svg/path-element.html" target="_top">
					<text x="80" y="90" style="stroke: #333333">Quadratic Bezier Curves</text>
			</a>
			<path d="M300,15                  c-50,50  100,100  75,20                  " style="stroke:#000000; stroke-width: 2; fill:#ffffcc;"/>
			<a xlink:href="/svg/path-element.html" target="_top">
					<text x="280" y="90" style="stroke: #333333">Cubic Bezier Curves</text>
			</a>
	</svg>
</svg>
